<mxfile host="app.diagrams.net" modified="2024-01-08T03:40:01.460Z" agent="Mozilla/5.0 (Windows NT 10.0; Win64; x64) AppleWebKit/537.36 (KHTML, like Gecko) Chrome/109.0.0.0 Safari/537.36 SLBrowser/9.0.0.10191 SLBChan/112" etag="lDRKUkJICFh6mxakax01" version="22.1.17" type="github">
  <diagram id="C5RBs43oDa-KdzZeNtuy" name="Page-1">
    <mxGraphModel dx="1173" dy="742" grid="1" gridSize="10" guides="1" tooltips="1" connect="1" arrows="1" fold="1" page="1" pageScale="1" pageWidth="827" pageHeight="1169" math="0" shadow="0">
      <root>
        <mxCell id="WIyWlLk6GJQsqaUBKTNV-0" />
        <mxCell id="WIyWlLk6GJQsqaUBKTNV-1" parent="WIyWlLk6GJQsqaUBKTNV-0" />
        <mxCell id="jOF8OcakxjJU1x39UcDW-0" value="STM32" style="rounded=0;whiteSpace=wrap;html=1;" vertex="1" parent="WIyWlLk6GJQsqaUBKTNV-1">
          <mxGeometry x="340" y="170" width="130" height="240" as="geometry" />
        </mxCell>
        <mxCell id="jOF8OcakxjJU1x39UcDW-1" value="MAX3012心率血氧" style="rounded=1;whiteSpace=wrap;html=1;" vertex="1" parent="WIyWlLk6GJQsqaUBKTNV-1">
          <mxGeometry x="130" y="170" width="120" height="40" as="geometry" />
        </mxCell>
        <mxCell id="jOF8OcakxjJU1x39UcDW-2" value="ESP01S" style="rounded=1;whiteSpace=wrap;html=1;" vertex="1" parent="WIyWlLk6GJQsqaUBKTNV-1">
          <mxGeometry x="130" y="360" width="120" height="40" as="geometry" />
        </mxCell>
        <mxCell id="jOF8OcakxjJU1x39UcDW-3" value="DTH11温度" style="rounded=1;whiteSpace=wrap;html=1;" vertex="1" parent="WIyWlLk6GJQsqaUBKTNV-1">
          <mxGeometry x="130" y="295" width="120" height="40" as="geometry" />
        </mxCell>
        <mxCell id="jOF8OcakxjJU1x39UcDW-4" value="按键设置" style="rounded=1;whiteSpace=wrap;html=1;" vertex="1" parent="WIyWlLk6GJQsqaUBKTNV-1">
          <mxGeometry x="130" y="230" width="120" height="40" as="geometry" />
        </mxCell>
        <mxCell id="jOF8OcakxjJU1x39UcDW-5" value="OLED显示屏" style="rounded=1;whiteSpace=wrap;html=1;" vertex="1" parent="WIyWlLk6GJQsqaUBKTNV-1">
          <mxGeometry x="570" y="200" width="120" height="40" as="geometry" />
        </mxCell>
        <mxCell id="jOF8OcakxjJU1x39UcDW-7" value="MPU6050螺旋仪" style="rounded=1;whiteSpace=wrap;html=1;" vertex="1" parent="WIyWlLk6GJQsqaUBKTNV-1">
          <mxGeometry x="560" y="335" width="120" height="40" as="geometry" />
        </mxCell>
        <mxCell id="jOF8OcakxjJU1x39UcDW-8" value="蜂鸣器" style="rounded=1;whiteSpace=wrap;html=1;" vertex="1" parent="WIyWlLk6GJQsqaUBKTNV-1">
          <mxGeometry x="560" y="270" width="120" height="40" as="geometry" />
        </mxCell>
        <mxCell id="jOF8OcakxjJU1x39UcDW-13" value="" style="shape=flexArrow;endArrow=classic;html=1;rounded=0;exitX=1;exitY=0.5;exitDx=0;exitDy=0;entryX=0.013;entryY=0.085;entryDx=0;entryDy=0;entryPerimeter=0;" edge="1" parent="WIyWlLk6GJQsqaUBKTNV-1" source="jOF8OcakxjJU1x39UcDW-1" target="jOF8OcakxjJU1x39UcDW-0">
          <mxGeometry width="50" height="50" relative="1" as="geometry">
            <mxPoint x="390" y="210" as="sourcePoint" />
            <mxPoint x="440" y="160" as="targetPoint" />
          </mxGeometry>
        </mxCell>
        <mxCell id="jOF8OcakxjJU1x39UcDW-14" value="" style="shape=flexArrow;endArrow=classic;html=1;rounded=0;exitX=1;exitY=0.5;exitDx=0;exitDy=0;entryX=0.013;entryY=0.085;entryDx=0;entryDy=0;entryPerimeter=0;startArrow=block;" edge="1" parent="WIyWlLk6GJQsqaUBKTNV-1">
          <mxGeometry width="50" height="50" relative="1" as="geometry">
            <mxPoint x="248" y="379.5" as="sourcePoint" />
            <mxPoint x="340" y="379.5" as="targetPoint" />
          </mxGeometry>
        </mxCell>
        <mxCell id="jOF8OcakxjJU1x39UcDW-15" value="" style="shape=flexArrow;endArrow=classic;html=1;rounded=0;exitX=1;exitY=0.5;exitDx=0;exitDy=0;entryX=0.013;entryY=0.085;entryDx=0;entryDy=0;entryPerimeter=0;" edge="1" parent="WIyWlLk6GJQsqaUBKTNV-1">
          <mxGeometry width="50" height="50" relative="1" as="geometry">
            <mxPoint x="248" y="249.5" as="sourcePoint" />
            <mxPoint x="340" y="249.5" as="targetPoint" />
          </mxGeometry>
        </mxCell>
        <mxCell id="jOF8OcakxjJU1x39UcDW-16" value="" style="shape=flexArrow;endArrow=classic;html=1;rounded=0;exitX=1;exitY=0.5;exitDx=0;exitDy=0;entryX=0.013;entryY=0.085;entryDx=0;entryDy=0;entryPerimeter=0;" edge="1" parent="WIyWlLk6GJQsqaUBKTNV-1">
          <mxGeometry width="50" height="50" relative="1" as="geometry">
            <mxPoint x="250" y="314.5" as="sourcePoint" />
            <mxPoint x="342" y="314.5" as="targetPoint" />
          </mxGeometry>
        </mxCell>
        <mxCell id="jOF8OcakxjJU1x39UcDW-18" value="" style="shape=flexArrow;endArrow=classic;html=1;rounded=0;exitX=0.987;exitY=0.213;exitDx=0;exitDy=0;entryX=0;entryY=0.5;entryDx=0;entryDy=0;exitPerimeter=0;" edge="1" parent="WIyWlLk6GJQsqaUBKTNV-1" source="jOF8OcakxjJU1x39UcDW-0" target="jOF8OcakxjJU1x39UcDW-5">
          <mxGeometry width="50" height="50" relative="1" as="geometry">
            <mxPoint x="470" y="224.5" as="sourcePoint" />
            <mxPoint x="562" y="224.5" as="targetPoint" />
          </mxGeometry>
        </mxCell>
        <mxCell id="jOF8OcakxjJU1x39UcDW-21" value="" style="shape=flexArrow;endArrow=classic;html=1;rounded=0;entryX=0;entryY=0.5;entryDx=0;entryDy=0;" edge="1" parent="WIyWlLk6GJQsqaUBKTNV-1" target="jOF8OcakxjJU1x39UcDW-8">
          <mxGeometry width="50" height="50" relative="1" as="geometry">
            <mxPoint x="470" y="290" as="sourcePoint" />
            <mxPoint x="562" y="289.5" as="targetPoint" />
          </mxGeometry>
        </mxCell>
        <mxCell id="jOF8OcakxjJU1x39UcDW-22" value="" style="shape=flexArrow;endArrow=none;html=1;rounded=0;entryX=0;entryY=0.5;entryDx=0;entryDy=0;endFill=0;startArrow=block;exitX=1;exitY=0.771;exitDx=0;exitDy=0;exitPerimeter=0;" edge="1" parent="WIyWlLk6GJQsqaUBKTNV-1" source="jOF8OcakxjJU1x39UcDW-0" target="jOF8OcakxjJU1x39UcDW-7">
          <mxGeometry width="50" height="50" relative="1" as="geometry">
            <mxPoint x="470" y="350" as="sourcePoint" />
            <mxPoint x="562" y="369.5" as="targetPoint" />
          </mxGeometry>
        </mxCell>
      </root>
    </mxGraphModel>
  </diagram>
</mxfile>
